<svg width="668" height="668" viewBox="0 0 668 668" fill="none" xmlns="http://www.w3.org/2000/svg">
<g clip-path="url(#clip0_4210_1193)">
<path fill-rule="evenodd" clip-rule="evenodd" d="M6.10547 6.04936C6.23749 5.90916 6.37185 5.76895 6.50855 5.63225C40.0461 -27.9053 214.076 91.7504 395.215 272.89C576.354 454.029 696.01 628.058 662.472 661.596C662.336 661.733 662.197 661.867 662.055 661.999L608.867 608.811C609.01 608.68 609.15 608.546 609.287 608.409C637.384 580.311 537.133 434.502 385.368 282.736C233.603 130.972 87.7932 30.7203 59.6955 58.818C59.5586 58.955 59.4246 59.0948 59.2936 59.2375L6.10547 6.04936ZM72.191 72.1349C98.93 45.396 237.673 140.786 382.083 285.196C526.492 429.605 621.882 568.349 595.144 595.087L575.114 575.058C575.258 574.929 575.397 574.794 575.535 574.658C600.234 549.959 512.338 422.016 379.213 288.891C246.089 155.767 118.146 67.8704 93.4469 92.5694C93.3102 92.7073 93.1758 92.8475 93.0461 92.99L72.191 72.1349Z" fill="#B87D43"/>
<path d="M334.105 557.999C468.311 557.999 577.105 449.204 577.105 314.999C577.105 180.794 468.311 71.999 334.105 71.999C199.9 71.999 91.1055 180.794 91.1055 314.999C91.1055 449.204 199.9 557.999 334.105 557.999Z" fill="#FCCB6B"/>
<mask id="mask0_4210_1193" style="mask-type:luminance" maskUnits="userSpaceOnUse" x="91" y="72" width="487" height="487">
<path d="M334.422 558.221C468.626 558.221 577.421 449.467 577.421 315.312C577.421 181.157 468.626 72.4026 334.422 72.4026C200.217 72.4026 91.4232 181.157 91.4232 315.312C91.4232 449.467 200.217 558.221 334.422 558.221Z" fill="white"/>
</mask>
<g mask="url(#mask0_4210_1193)">
<path fill-rule="evenodd" clip-rule="evenodd" d="M575.515 549.429C570.041 543.955 561.164 543.955 555.69 549.429C550.214 554.901 550.214 563.775 555.69 569.247L684.559 698.069C690.034 703.542 698.911 703.542 704.385 698.069C709.86 692.597 709.86 683.724 704.385 678.25L575.515 549.429ZM393.777 367.756C388.301 362.284 379.425 362.284 373.95 367.756C368.476 373.229 368.476 382.102 373.95 387.576L438.385 451.986L438.376 451.994C443.443 457.493 443.309 466.057 437.972 471.392C432.635 476.727 424.066 476.861 418.567 471.796L418.559 471.806L286.385 339.681C280.91 334.207 272.034 334.207 266.559 339.681C261.084 345.153 261.084 354.026 266.559 359.499L478.864 571.725C484.338 577.198 493.215 577.198 498.689 571.725C504.165 566.252 504.165 557.378 498.689 551.906L458.211 511.443C452.737 505.969 452.737 497.096 458.211 491.624C463.686 486.151 472.562 486.151 478.038 491.624L502.82 516.397C508.295 521.87 517.171 521.87 522.645 516.397C528.121 510.924 528.121 502.051 522.645 496.579L393.777 367.756ZM483.819 616.317C478.345 610.844 469.468 610.844 463.994 616.317C458.518 621.79 458.518 630.663 463.994 636.136L524.299 696.418C529.773 701.891 538.65 701.891 544.124 696.418C549.599 690.944 549.599 682.071 544.124 676.599L483.819 616.317ZM246.733 379.318C241.258 373.844 232.381 373.844 226.907 379.318C221.432 384.79 221.432 393.664 226.907 399.136L287.211 459.418C292.686 464.891 301.562 464.891 307.037 459.418C312.512 453.946 312.512 445.073 307.037 439.599L246.733 379.318ZM18.7327 171.221C24.2083 165.747 33.0836 165.747 38.5581 171.221L175.689 308.3C181.165 313.773 181.165 322.647 175.689 328.119C170.214 333.591 161.338 333.591 155.863 328.119L18.7327 191.039C13.2582 185.566 13.2582 176.693 18.7327 171.221ZM245.08 258.753C239.606 253.281 230.729 253.281 225.255 258.753C219.78 264.226 219.78 273.099 225.255 278.573L232.69 286.005C238.164 291.477 238.164 300.35 232.69 305.823C227.215 311.295 218.339 311.295 212.863 305.823L0.55919 93.5974C-4.91646 88.1237 -4.91646 79.2506 0.55919 73.7781C6.03367 68.3056 14.9101 68.3056 20.3846 73.7781L185.603 238.934L185.611 238.926C191.11 243.991 199.679 243.856 205.016 238.522C210.352 233.187 210.487 224.622 205.42 219.124L205.428 219.116L185.603 199.297C180.127 193.824 180.127 184.951 185.603 179.479C191.077 174.006 199.954 174.005 205.428 179.479L334.298 308.3C339.773 313.773 339.773 322.647 334.298 328.119C328.824 333.591 319.947 333.591 314.472 328.119L245.08 258.753ZM8.81998 2.76108C14.2945 -2.71138 23.1709 -2.71138 28.6454 2.76108L157.515 131.583C162.99 137.056 162.99 145.929 157.515 151.402C152.041 156.874 143.164 156.874 137.69 151.402L8.81881 22.5804C3.3455 17.1067 3.34667 8.23354 8.81998 2.76108Z" fill="#ECB55A"/>
</g>
<mask id="mask1_4210_1193" style="mask-type:luminance" maskUnits="userSpaceOnUse" x="91" y="72" width="487" height="487">
<path d="M334.422 558.221C468.626 558.221 577.421 449.467 577.421 315.312C577.421 181.157 468.626 72.4026 334.422 72.4026C200.217 72.4026 91.4232 181.157 91.4232 315.312C91.4232 449.467 200.217 558.221 334.422 558.221Z" fill="white"/>
</mask>
<g mask="url(#mask1_4210_1193)">
<path opacity="0.078" d="M334.422 72.4026H578.693V558.221H334.422V72.4026Z" fill="black"/>
</g>
<path fill-rule="evenodd" clip-rule="evenodd" d="M6.15581 5.99902C6.01561 6.12988 5.87541 6.26424 5.73871 6.40211C-27.7989 39.9386 91.857 213.969 272.996 395.108C454.136 576.248 628.166 695.903 661.704 662.366C661.84 662.229 661.975 662.09 662.105 661.949L608.918 608.761C608.788 608.903 608.653 609.043 608.517 609.18C580.418 637.279 434.609 537.027 282.843 385.261C131.078 233.495 30.8256 87.6869 58.9246 59.588C59.0613 59.4513 59.2015 59.3169 59.344 59.1861L6.15581 5.99902ZM72.2403 72.0835C45.5013 98.8225 140.893 237.566 285.303 381.976C429.713 526.386 568.456 621.777 595.195 595.037L575.166 575.008C575.035 575.152 574.902 575.292 574.765 575.428C550.066 600.127 422.123 512.231 288.998 379.106C155.874 245.982 67.977 118.038 92.676 93.3394C92.8127 93.2027 92.9529 93.0695 93.0966 92.9387L72.2403 72.0835Z" fill="#B87D43"/>
</g>
<defs>
<clipPath id="clip0_4210_1193">
<rect width="668" height="668" fill="white"/>
</clipPath>
</defs>
</svg>
