<svg width="668" height="668" viewBox="0 0 668 668" fill="none" xmlns="http://www.w3.org/2000/svg">
<g clip-path="url(#clip0_4210_1208)">
<path fill-rule="evenodd" clip-rule="evenodd" d="M5 5.94389C5.13105 5.80369 5.26562 5.66348 5.40252 5.52679C38.9908 -28.0108 213.284 91.6449 394.697 272.784C576.11 453.923 695.947 627.953 662.358 661.491C662.221 661.627 662.082 661.762 661.941 661.894L608.672 608.705C608.815 608.575 608.955 608.44 609.092 608.304C637.233 580.206 536.83 434.397 384.835 282.631C232.84 130.867 86.8113 30.6148 58.6699 58.7126C58.5327 58.8495 58.3985 58.9893 58.2674 59.132L5 5.94389ZM71.1843 72.0295C97.9637 45.2905 236.917 140.681 381.545 285.09C526.173 429.5 621.707 568.243 594.928 594.982L574.868 574.953C575.012 574.823 575.153 574.689 575.29 574.552C600.026 549.853 511.997 421.91 378.671 288.786C245.345 155.661 117.209 67.765 92.4723 92.4639C92.3356 92.6013 92.2018 92.7415 92.071 92.8846L71.1843 72.0295Z" fill="#B87D43"/>
<path d="M334 557.894C467.653 557.894 576 449.099 576 314.894C576 180.688 467.653 71.8936 334 71.8936C200.347 71.8936 92 180.688 92 314.894C92 449.099 200.347 557.894 334 557.894Z" fill="#FCCB6B"/>
<mask id="mask0_4210_1208" style="mask-type:luminance" maskUnits="userSpaceOnUse" x="91" y="71" width="486" height="487">
<path d="M334 557.858C468.155 557.858 576.909 449.065 576.909 314.862C576.909 180.66 468.155 71.8667 334 71.8667C199.845 71.8667 91.0908 180.66 91.0908 314.862C91.0908 449.065 199.845 557.858 334 557.858Z" fill="white"/>
</mask>
<g mask="url(#mask0_4210_1208)">
<path fill-rule="evenodd" clip-rule="evenodd" d="M575.004 549.064C569.532 543.588 560.659 543.588 555.186 549.064C549.713 554.538 549.713 563.415 555.186 568.889L684.007 697.757C689.481 703.232 698.354 703.232 703.827 697.757C709.299 692.283 709.299 683.407 703.827 677.931L575.004 549.064ZM393.333 367.326C387.859 361.852 378.986 361.852 373.514 367.326C368.041 372.801 368.041 381.677 373.514 387.153L437.924 451.586L437.916 451.594C442.981 457.095 442.847 465.663 437.512 470.999C432.177 476.336 423.611 476.47 418.114 471.403L418.106 471.413L285.981 339.241C280.507 333.765 271.636 333.765 266.162 339.241C260.689 344.715 260.689 353.591 266.162 359.066L478.388 571.368C483.861 576.842 492.734 576.842 498.207 571.368C503.68 565.892 503.68 557.016 498.207 551.542L457.744 511.064C452.271 505.589 452.271 496.713 457.744 491.238C463.216 485.763 472.089 485.763 477.563 491.238L502.336 516.02C507.809 521.495 516.682 521.495 522.154 516.02C527.628 510.545 527.628 501.669 522.154 496.195L393.333 367.326ZM483.342 615.975C477.87 610.501 468.997 610.501 463.524 615.975C458.051 621.451 458.051 630.327 463.524 635.802L523.807 696.105C529.279 701.58 538.152 701.58 543.625 696.105C549.097 690.63 549.097 681.754 543.625 676.279L483.342 615.975ZM246.344 378.892C240.87 373.416 231.997 373.416 226.524 378.892C221.052 384.366 221.052 393.243 226.524 398.717L286.807 459.021C292.279 464.495 301.152 464.495 306.625 459.021C312.099 453.547 312.099 444.67 306.625 439.195L246.344 378.892ZM18.4273 170.721C23.9009 165.245 32.7729 165.245 38.2454 170.721L175.326 307.85C180.799 313.324 180.799 322.2 175.326 327.675C169.853 333.149 160.98 333.149 155.507 327.675L18.4273 190.546C12.9548 185.071 12.9548 176.195 18.4273 170.721ZM244.691 258.284C239.219 252.81 230.346 252.81 224.873 258.284C219.401 263.759 219.401 272.635 224.873 278.111L232.305 285.545C237.778 291.02 237.778 299.896 232.305 305.371C226.833 310.845 217.96 310.845 212.486 305.371L0.260495 93.0695C-5.21313 87.5939 -5.21313 78.7176 0.260495 73.2432C5.73296 67.7687 14.6061 67.7687 20.0786 73.2432L185.236 238.459L185.244 238.45C190.741 243.517 199.307 243.382 204.642 238.046C209.976 232.709 210.111 224.141 205.046 218.641L205.054 218.633L185.236 198.807C179.762 193.332 179.762 184.456 185.236 178.981C190.708 173.507 199.581 173.507 205.054 178.981L333.876 307.85C339.349 313.324 339.349 322.2 333.876 327.675C328.404 333.149 319.531 333.149 314.057 327.675L244.691 258.284ZM8.51824 2.20078C13.9907 -3.27363 22.8639 -3.27363 28.3363 2.20078L157.159 131.069C162.631 136.544 162.631 145.42 157.159 150.894C151.686 156.37 142.813 156.37 137.341 150.894L8.51707 22.0271C3.04577 16.5515 3.04694 7.67519 8.51824 2.20078Z" fill="#ECB55A"/>
</g>
<mask id="mask1_4210_1208" style="mask-type:luminance" maskUnits="userSpaceOnUse" x="91" y="71" width="486" height="487">
<path d="M334 557.858C468.155 557.858 576.909 449.065 576.909 314.862C576.909 180.66 468.155 71.8667 334 71.8667C199.845 71.8667 91.0908 180.66 91.0908 314.862C91.0908 449.065 199.845 557.858 334 557.858Z" fill="white"/>
</mask>
<g mask="url(#mask1_4210_1208)">
<path opacity="0.078" d="M334 71.8667H578.181V557.858H334V71.8667Z" fill="black"/>
</g>
<path fill-rule="evenodd" clip-rule="evenodd" d="M334 551.894C464.34 551.894 570 446.233 570 315.894C570 185.554 464.34 79.8936 334 79.8936V551.894Z" fill="#9C4925"/>
<mask id="mask2_4210_1208" style="mask-type:luminance" maskUnits="userSpaceOnUse" x="334" y="78" width="236" height="473">
<path fill-rule="evenodd" clip-rule="evenodd" d="M334 550.849C464.286 550.849 569.902 445.195 569.902 314.863C569.902 184.531 464.286 78.8765 334 78.8765V550.849Z" fill="white"/>
</mask>
<g mask="url(#mask2_4210_1208)">
<path d="M335.168 448.043C408.695 448.043 468.301 388.416 468.301 314.863C468.301 241.309 408.695 181.682 335.168 181.682C261.641 181.682 202.035 241.309 202.035 314.863C202.035 388.416 261.641 448.043 335.168 448.043Z" fill="#E09B7F"/>
<path d="M334.584 355.751C356.836 355.751 374.874 337.707 374.874 315.447C374.874 293.187 356.836 275.142 334.584 275.142C312.332 275.142 294.294 293.187 294.294 315.447C294.294 337.707 312.332 355.751 334.584 355.751Z" fill="#FFEECC"/>
</g>
<path fill-rule="evenodd" clip-rule="evenodd" d="M6.05947 5.89355C5.91785 6.02544 5.77859 6.15982 5.64174 6.29664C-27.9465 39.8331 91.89 213.863 273.303 395.003C454.715 576.142 629.008 695.798 662.596 662.26C662.733 662.124 662.868 661.985 663 661.843L609.732 608.655C609.6 608.798 609.466 608.938 609.329 609.074C581.189 637.173 435.159 536.922 283.164 385.156C131.171 233.39 30.7677 87.5814 58.9079 59.4825C59.0459 59.3458 59.1852 59.2114 59.3279 59.0806L6.05947 5.89355ZM72.2449 71.9781C45.4655 98.717 141 237.46 285.628 381.87C430.255 526.28 569.208 621.671 595.987 594.932L575.928 574.902C575.798 575.046 575.664 575.186 575.527 575.323C550.79 600.022 422.654 512.126 289.329 379.001C156.003 245.876 67.9739 117.933 92.7102 93.2339C92.8483 93.0972 92.9875 92.9641 93.1315 92.8332L72.2449 71.9781Z" fill="#B87D43"/>
</g>
<defs>
<clipPath id="clip0_4210_1208">
<rect width="668" height="668" fill="white"/>
</clipPath>
</defs>
</svg>
